<svg width="45" height="43" viewBox="0 0 45 43" fill="none" xmlns="http://www.w3.org/2000/svg">
<path d="M26.2996 33.2497C22.7996 31.9497 19.1996 31.7497 15.8996 32.6497C13.5996 33.2497 11.3996 34.4497 9.39963 35.9497L7.9996 37.1497L7.59961 37.5497L8.4996 38.3497C8.5996 38.3497 8.59962 38.4497 8.69962 38.5497C8.89962 38.7497 9.09963 38.8497 9.39963 39.0497L9.9996 39.4497L10.5996 38.9497C10.6996 38.8497 10.8996 38.6497 11.0996 38.5497C12.8996 37.0497 14.8996 36.0497 16.9996 35.5497C19.6996 34.8497 22.5996 34.9497 25.4996 36.0497C27.8996 36.9497 32.7996 38.0497 38.6996 35.5497L38.8996 35.4497L39.1996 35.1497C39.1996 35.0497 39.2996 35.0497 39.3996 34.9497C39.8996 34.3497 40.3996 33.7497 40.7996 33.0497L42.7996 29.9497L39.5996 31.7497C34.8996 34.3497 30.5996 34.8497 26.2996 33.2497Z" fill="#111111"/>
<path d="M12.6 22.45C15.3 21.75 18.2 21.85 21.1 22.95C24.3 24.15 32.5 25.85 41.7 17.55L43.2 16.05L43.3 15.95L43.7 15.55L43.5 15.05C43.4 14.65 43.2 14.15 43 13.65L42.5 12.25L41.5 13.25C41.4 13.45 41.2 13.55 41 13.75C36.6 18.25 29.8 22.85 22 20.05C18.5 18.75 14.9 18.55 11.6 19.45C8.40001 20.35 5.6 22.05 3 24.45V24.35L1.5 25.95C1.5 26.05 1.40002 26.05 1.30002 26.15L1 26.45L1.10001 26.85C1.20001 27.35 1.4 27.85 1.5 28.35L2.10001 29.95L3.10001 28.65C3.20001 28.45 3.4 28.35 3.5 28.15C5.6 26.25 8.50001 23.55 12.6 22.45Z" fill="#111111"/>
<path d="M2.90002 20.65C5.20002 18.25 7.80001 16.75 10.6 15.95C13.3 15.25 16.2 15.35 19.1 16.45C28.1 19.75 35.9 14.35 39.3 11.45L40.6 10.15L41.1 9.75L40.7 9.15002C40.4 8.85002 40.2 8.45002 39.9 8.05002L39.3 7.25L38.6 7.95001C38.5 8.05001 38.3 8.25001 38.2 8.35001C34 12.35 27.5 16.45 20.1 13.65C16.6 12.35 13 12.15 9.70001 13.05C7.60001 13.65 5.60001 14.65 3.60001 15.95L1.5 17.65C1.3 17.85 1.2 17.95 1 18.15L0.800018 18.35V18.65C0.700018 19.35 0.700006 20.05 0.600006 20.65L0.5 23.15L2.20001 21.35C2.40001 21.15 2.60002 20.85 2.90002 20.65Z" fill="#111111"/>
<path d="M29.2004 40.0499L29.0004 40.6499L29.2004 40.0499C28.9004 39.9499 28.7004 39.8499 28.4004 39.7499C24.9004 38.4499 21.3004 38.2499 18.0004 39.1499C17.3004 39.3499 16.6004 39.5499 15.9004 39.8499L13.5004 40.9499L12.9004 41.2499L14.9004 41.9499C15.5004 42.1499 16.1004 42.3499 16.7004 42.5499L17.0004 42.6499L17.3004 42.5499C17.6004 42.4499 17.9004 42.2499 18.2004 42.2499C18.4004 42.2499 18.6004 42.1499 18.8004 42.0499C21.2004 41.4499 23.8004 41.4499 26.6004 42.3499C26.9004 42.4499 27.1004 42.5499 27.4004 42.6499L27.9004 42.8499L28.2004 42.7499C28.9004 42.5499 29.7004 42.3499 30.3004 42.0499L33.1004 41.0499L30.2004 40.3499C29.9004 40.2499 29.5004 40.1499 29.2004 40.0499Z" fill="#111111"/>
<path d="M44.4998 19.3501L42.9998 20.8501C42.7998 21.0501 42.5998 21.2501 42.3998 21.4501C38.2998 25.3501 31.6998 29.5501 24.2998 26.7501C20.7998 25.4501 17.1998 25.2501 13.8998 26.1501C10.7998 27.0501 7.99979 28.6501 5.49979 31.0501L4.1998 32.4501L3.7998 32.9501L4.1998 33.5501C4.4998 33.9501 4.69981 34.2501 4.89981 34.6501L5.49979 35.5501L6.1998 34.6501C6.2998 34.5501 6.49979 34.3501 6.59979 34.2501C8.99979 31.6501 11.5998 30.0501 14.5998 29.2501C17.2998 28.5501 20.1998 28.6501 23.0998 29.7501C25.5998 30.6501 28.1998 30.9501 30.7998 30.6501C35.3998 30.1501 39.9998 27.5501 43.3998 24.6501C43.5998 24.4501 43.7998 24.3501 43.9998 24.1501L44.2998 23.8501V23.5501C44.2998 22.9501 44.3998 22.2501 44.3998 21.6501L44.4998 19.3501Z" fill="#111111"/>
<path d="M6.50018 10.1498L6.2002 9.5498L6.50018 10.1498C7.10018 9.84981 7.80021 9.6498 8.40021 9.4498C11.1002 8.7498 14.0002 8.8498 16.9002 9.9498C18.8002 10.6498 20.7002 10.9498 22.8002 10.9498C27.0002 10.9498 31.2002 9.4498 35.1002 6.5498L36.6002 5.34979L37.1002 4.9498L36.2002 4.24979C35.9002 3.94979 35.5002 3.6498 35.1002 3.4498L34.5002 3.0498L34.0002 3.4498C33.8002 3.5498 33.7002 3.74979 33.5002 3.84979C28.2002 7.84979 22.9002 8.9498 17.9002 7.0498C14.3002 5.7498 10.7002 5.4498 7.10019 6.5498C6.80019 6.6498 6.50019 6.74979 6.10019 6.84979L5.90021 6.9498L5.60019 7.24979C5.60019 7.34979 5.50021 7.3498 5.40021 7.4498C5.00021 8.0498 4.50019 8.54981 4.10019 9.14981L2.2002 12.0498L5.3002 10.4498C5.8002 10.4498 6.20018 10.2498 6.50018 10.1498Z" fill="#111111"/>
<path d="M14.7 3.34988L15 3.44989C16.3 3.94989 18.3 4.44989 20.8 4.44989C23.4 4.44989 25.9 3.84988 28.4 2.84988L31.5 1.34988L29.4 0.649902C28.8 0.449902 28.2 0.249902 27.5 0.149902H27.2L26.9 0.249878C26.6 0.349878 26.3 0.549902 26 0.649902C23 1.7499 20 1.9499 17.1 1.1499C16.8 1.0499 16.5 0.949884 16.2 0.849884L15.9 0.749878L15.6 0.849884C15 1.04988 14.4 1.2499 13.8 1.5499L11.5 2.5499L13.9 3.24988C14.1 3.14988 14.4 3.24988 14.7 3.34988Z" fill="#111111"/>
</svg>
