<svg width="42" height="17" viewBox="0 0 42 17" fill="none" xmlns="http://www.w3.org/2000/svg">
<path d="M41.4998 0.350098L39.9998 1.8501C39.7998 2.0501 39.5998 2.2501 39.3998 2.4501C35.2998 6.3501 28.6998 10.5501 21.2998 7.75009C17.7998 6.45009 14.1998 6.25012 10.8998 7.15012C7.79981 8.05012 4.99979 9.65011 2.49979 12.0501L1.1998 13.4501L0.799805 13.9501L1.1998 14.5501C1.4998 14.9501 1.69981 15.2501 1.89981 15.6501L2.49979 16.5501L3.1998 15.6501C3.2998 15.5501 3.49979 15.3501 3.59979 15.2501C5.99979 12.6501 8.59979 11.0501 11.5998 10.2501C14.2998 9.55009 17.1998 9.65009 20.0998 10.7501C22.5998 11.6501 25.1998 11.9501 27.7998 11.6501C32.3998 11.1501 36.9998 8.55012 40.3998 5.65012C40.5998 5.45012 40.7998 5.35012 40.9998 5.15012L41.2998 4.8501V4.55011C41.2998 3.95011 41.3998 3.25012 41.3998 2.65012L41.4998 0.350098Z" fill="#111111"/>
</svg>
