<svg width="48" height="38" viewBox="0 0 48 38" fill="none" xmlns="http://www.w3.org/2000/svg">
<path d="M47.24 0H24.85C24.29 0 23.75 0.17 23.29 0.48L0.34 15.91C0.13 16.05 0 16.29 0 16.54V23.24C0 23.66 0.34 24 0.76 24H6.74C7.44 24 7.72 24.91 7.14 25.3L0.34 29.87C0.13 30.01 0 30.25 0 30.5V37.2C0 37.62 0.34 37.96 0.76 37.96H23.15C23.71 37.96 24.25 37.79 24.71 37.48L47.67 22.04C47.88 21.9 48.01 21.66 48.01 21.41V14.71C48.01 14.29 47.67 13.95 47.25 13.95H41.27C40.57 13.95 40.29 13.04 40.87 12.65L47.67 8.08C47.88 7.94 48.01 7.7 48.01 7.45V0.76C48.01 0.34 47.67 0 47.25 0H47.24ZM11.13 22.66L23.31 14.47C23.76 14.17 24.29 14.01 24.83 14.01H36.47C37.17 14.01 37.45 14.92 36.87 15.31L24.69 23.5C24.24 23.8 23.71 23.96 23.17 23.96H11.53C10.83 23.96 10.55 23.05 11.13 22.66Z" fill="white"/>
</svg>
