<svg width="65" height="50" viewBox="0 0 65 50" fill="none" xmlns="http://www.w3.org/2000/svg">
<path d="M63.0025 1H33.6156C32.8806 1 32.1719 1.21502 31.5681 1.60711L1.44625 21.1233C1.17063 21.3004 1 21.604 1 21.9202V30.3945C1 30.9257 1.44625 31.3557 1.9975 31.3557H9.84625C10.765 31.3557 11.1325 32.5067 10.3712 33L1.44625 38.7802C1.17063 38.9573 1 39.2609 1 39.5771V48.0514C1 48.5826 1.44625 49.0127 1.9975 49.0127H31.3844C32.1194 49.0127 32.8281 48.7976 33.4319 48.4055L63.5669 28.8767C63.8425 28.6996 64.0131 28.396 64.0131 28.0798V19.6055C64.0131 19.0743 63.5669 18.6443 63.0156 18.6443H55.1669C54.2481 18.6443 53.8806 17.4933 54.6419 17L63.5669 11.2198C63.8425 11.0427 64.0131 10.7391 64.0131 10.4229V1.96126C64.0131 1.43004 63.5669 1 63.0156 1H63.0025ZM15.6081 29.6609L31.5944 19.302C32.185 18.9225 32.8806 18.7202 33.5894 18.7202H48.8669C49.7856 18.7202 50.1531 19.8711 49.3919 20.3644L33.4056 30.7233C32.815 31.1028 32.1194 31.3051 31.4106 31.3051H16.1331C15.2144 31.3051 14.8469 30.1542 15.6081 29.6609Z" stroke="#111111" stroke-width="1.5"/>
</svg>
