<svg width="33" height="53" viewBox="0 0 33 53" fill="none" xmlns="http://www.w3.org/2000/svg">
<path d="M1.0004 12.4004H0.400391V22.1004H12.2004C13.3004 22.1004 13.7004 23.6004 12.7004 24.1004L10.4004 25.2004C7.30039 26.7004 4.2004 27.5004 1.0004 27.5004H0.400391V37.2004H11.9004C13.0004 37.2004 13.4004 38.7004 12.4004 39.2004L10.0004 40.3004C7.1004 41.7004 4.0004 42.4004 1.0004 42.4004H0.400391V52.1004H11.9004L13.2004 50.5004C18.8004 44.0004 25.3004 40.6004 32.1004 40.6004H32.6004V30.9004H21.1004C20.0004 30.9004 19.6004 29.4004 20.6004 28.9004L23.0004 27.8004C25.9004 26.4004 29.0004 25.7004 32.0004 25.7004H32.5004V16.0004H20.8004C19.7004 16.0004 19.3004 14.5004 20.3004 14.0004L22.6004 12.9004C25.7004 11.4004 28.8004 10.6004 32.0004 10.6004H32.5004V0.900391H21.0004L19.7004 2.5004C14.3004 9.0004 7.7004 12.4004 1.0004 12.4004Z" fill="#111111"/>
</svg>
